<svg xmlns="http://www.w3.org/2000/svg" width="38" height="38" viewBox="0 0 38 38"><defs><style>.a,.b{fill:currentColor; stroke: transparent;}.b{stroke:rgba(0,0,0,0);}.c{fill:none;}</style></defs><g transform="translate(-40 -541)"><g transform="translate(42.512 544.479)"><path class="a" d="M74.664,1942.943a.505.505,0,0,0,.42-.576c-.1-.652-.183-1.318-.263-1.984a.5.5,0,0,0-1,.12c.082.677.164,1.356.269,2.021a.5.5,0,0,0,.575.42Z" transform="translate(-59.894 -1919.847)"/><path class="a" d="M70.229,1931.6a8.877,8.877,0,0,0-2.058-.5.511.511,0,0,0-.563.436.5.5,0,0,0,.436.563,7.831,7.831,0,0,1,1.821.44.5.5,0,0,0,.364-.94Z" transform="translate(-59.942 -1919.915)"/><path class="a" d="M73.4,1934.409a6.16,6.16,0,0,0-1.338-1.71.5.5,0,0,0-.666.757,5.066,5.066,0,0,1,1.117,1.43.5.5,0,1,0,.888-.477Z" transform="translate(-59.914 -1919.903)"/><path class="a" d="M74.14,1938.969a.5.5,0,0,0,.421-.573,18.049,18.049,0,0,0-.413-2.032.5.5,0,0,0-.972.264,17.258,17.258,0,0,1,.39,1.921.5.5,0,0,0,.5.427A.516.516,0,0,0,74.14,1938.969Z" transform="translate(-59.899 -1919.877)"/><path class="a" d="M75.478,1944.255a.5.5,0,1,0-.97.269,9.344,9.344,0,0,0,.774,1.976.5.5,0,0,0,.443.264.5.5,0,0,0,.239-.062.5.5,0,0,0,.2-.683A8.448,8.448,0,0,1,75.478,1944.255Z" transform="translate(-59.889 -1919.817)"/><path class="a" d="M82.519,1949a12.839,12.839,0,0,1-1.921-.134.5.5,0,0,0-.573.421.5.5,0,0,0,.421.574,13.786,13.786,0,0,0,2.073.146.5.5,0,0,0,0-1.008Z" transform="translate(-59.846 -1919.778)"/><path class="a" d="M78.814,1948.392a5.316,5.316,0,0,1-1.546-.958.5.5,0,0,0-.674.749,6.356,6.356,0,0,0,1.836,1.142.5.5,0,0,0,.191.038.5.5,0,0,0,.192-.97Z" transform="translate(-59.874 -1919.79)"/><path class="b" d="M4.534,13.1a.508.508,0,0,1-.416-.218C3.7,12.271,0,6.841,0,4.534a4.535,4.535,0,0,1,9.07,0c0,2.308-3.7,7.736-4.12,8.348A.508.508,0,0,1,4.534,13.1Zm-.1-9.772A1.109,1.109,0,1,0,5.546,4.436,1.11,1.11,0,0,0,4.436,3.327Z" transform="translate(0 0)"/><path class="a" d="M84.542,1932A5.669,5.669,0,0,0,79,1937.775c0,3.008,4.9,11.737,5.1,12.107a.5.5,0,0,0,.878,0c.209-.37,5.1-9.1,5.1-12.107A5.669,5.669,0,0,0,84.542,1932Zm0,4.031a1.512,1.512,0,1,1-1.512,1.512A1.513,1.513,0,0,1,84.542,1936.031Z" transform="translate(-59.854 -1919.908)"/></g></g></svg>
